<svg xmlns="http://www.w3.org/2000/svg" xmlns:xlink="http://www.w3.org/1999/xlink" width="64" zoomAndPan="magnify" viewBox="0 0 48 48" height="64" preserveAspectRatio="xMidYMid meet" version="1.0"><defs><g/><clipPath id="ab99f9c298"><path d="M 0.488281 0 L 47.507812 0 L 47.507812 47.019531 L 0.488281 47.019531 Z M 0.488281 0 " clip-rule="nonzero"/></clipPath><clipPath id="7bf5f462f7"><path d="M 11.394531 14.722656 L 36.605469 14.722656 L 36.605469 27.332031 L 11.394531 27.332031 Z M 11.394531 14.722656 " clip-rule="nonzero"/></clipPath><clipPath id="a4be68adc5"><path d="M 30.304688 14.722656 C 33.785156 14.722656 36.605469 17.546875 36.605469 21.027344 C 36.605469 24.507812 33.785156 27.332031 30.304688 27.332031 L 17.695312 27.332031 C 14.214844 27.332031 11.394531 24.507812 11.394531 21.027344 C 11.394531 17.546875 14.214844 14.722656 17.695312 14.722656 Z M 30.304688 14.722656 " clip-rule="nonzero"/></clipPath><clipPath id="5fa42a1845"><path d="M 0.394531 0.722656 L 25.605469 0.722656 L 25.605469 13.332031 L 0.394531 13.332031 Z M 0.394531 0.722656 " clip-rule="nonzero"/></clipPath><clipPath id="eac5d32eaf"><path d="M 19.304688 0.722656 C 22.785156 0.722656 25.605469 3.546875 25.605469 7.027344 C 25.605469 10.507812 22.785156 13.332031 19.304688 13.332031 L 6.695312 13.332031 C 3.214844 13.332031 0.394531 10.507812 0.394531 7.027344 C 0.394531 3.546875 3.214844 0.722656 6.695312 0.722656 Z M 19.304688 0.722656 " clip-rule="nonzero"/></clipPath><clipPath id="a48b93722f"><rect x="0" width="26" y="0" height="14"/></clipPath><clipPath id="e0832342e8"><path d="M 12.804688 16.089844 L 34.90625 16.089844 L 34.90625 25.964844 L 12.804688 25.964844 Z M 12.804688 16.089844 " clip-rule="nonzero"/></clipPath><clipPath id="33c225fefb"><path d="M 29.964844 16.089844 C 32.691406 16.089844 34.902344 18.300781 34.902344 21.027344 C 34.902344 23.753906 32.691406 25.964844 29.964844 25.964844 L 17.742188 25.964844 C 15.015625 25.964844 12.804688 23.753906 12.804688 21.027344 C 12.804688 18.300781 15.015625 16.089844 17.742188 16.089844 Z M 29.964844 16.089844 " clip-rule="nonzero"/></clipPath><clipPath id="af08aee6cb"><path d="M 0.804688 0.0898438 L 22.90625 0.0898438 L 22.90625 9.964844 L 0.804688 9.964844 Z M 0.804688 0.0898438 " clip-rule="nonzero"/></clipPath><clipPath id="97e9756169"><path d="M 17.964844 0.0898438 C 20.691406 0.0898438 22.902344 2.300781 22.902344 5.027344 C 22.902344 7.753906 20.691406 9.964844 17.964844 9.964844 L 5.742188 9.964844 C 3.015625 9.964844 0.804688 7.753906 0.804688 5.027344 C 0.804688 2.300781 3.015625 0.0898438 5.742188 0.0898438 Z M 17.964844 0.0898438 " clip-rule="nonzero"/></clipPath><clipPath id="d6d10e5879"><rect x="0" width="23" y="0" height="10"/></clipPath><clipPath id="acbe0edd52"><path d="M 1 2 L 5.585938 2 L 5.585938 9 L 1 9 Z M 1 2 " clip-rule="nonzero"/></clipPath><clipPath id="02b3514449"><rect x="0" width="6" y="0" height="11"/></clipPath><clipPath id="7fb78bf8d8"><rect x="0" width="24" y="0" height="10"/></clipPath></defs><g clip-path="url(#ab99f9c298)"><path fill="#ffffff" d="M 0.488281 0 L 47.511719 0 L 47.511719 47.019531 L 0.488281 47.019531 Z M 0.488281 0 " fill-opacity="1" fill-rule="nonzero"/><path fill="#ffffff" d="M 0.488281 0 L 47.511719 0 L 47.511719 47.019531 L 0.488281 47.019531 Z M 0.488281 0 " fill-opacity="1" fill-rule="nonzero"/></g><g clip-path="url(#7bf5f462f7)"><g clip-path="url(#a4be68adc5)"><g transform="matrix(1, 0, 0, 1, 11, 14)"><g clip-path="url(#a48b93722f)"><g clip-path="url(#5fa42a1845)"><g clip-path="url(#eac5d32eaf)"><path fill="#222222" d="M 0.394531 0.722656 L 25.605469 0.722656 L 25.605469 13.332031 L 0.394531 13.332031 Z M 0.394531 0.722656 " fill-opacity="1" fill-rule="nonzero"/></g></g></g></g></g></g><g clip-path="url(#e0832342e8)"><g clip-path="url(#33c225fefb)"><g transform="matrix(1, 0, 0, 1, 12, 16)"><g clip-path="url(#d6d10e5879)"><g clip-path="url(#af08aee6cb)"><g clip-path="url(#97e9756169)"><path fill="#ffffff" d="M 0.804688 0.0898438 L 22.90625 0.0898438 L 22.90625 9.964844 L 0.804688 9.964844 Z M 0.804688 0.0898438 " fill-opacity="1" fill-rule="nonzero"/></g></g></g></g></g></g><path stroke-linecap="butt" transform="matrix(0.734694, 0, 0, 0.734694, 5.191836, 19.557552)" fill="none" stroke-linejoin="miter" d="M -0.000585458 2.00055 L 10.361937 2.00055 " stroke="#000000" stroke-width="4" stroke-opacity="1" stroke-miterlimit="4"/><path stroke-linecap="butt" transform="matrix(0.734694, 0, 0, 0.734694, 35.196733, 19.557552)" fill="none" stroke-linejoin="miter" d="M -0.00193392 2.00055 L 10.360588 2.00055 " stroke="#000000" stroke-width="4" stroke-opacity="1" stroke-miterlimit="4"/><g transform="matrix(1, 0, 0, 1, 21, 15)"><g clip-path="url(#02b3514449)"><g clip-path="url(#acbe0edd52)"><g fill="#000000" fill-opacity="1"><g transform="translate(0.36888, 8.172251)"><g><path d="M 4.78125 -1.1875 L 4.78125 0 L 0.703125 0 L 0.703125 -6.109375 L 2.078125 -6.109375 L 2.078125 -1.1875 Z M 4.78125 -1.1875 "/></g></g></g></g></g></g><g transform="matrix(1, 0, 0, 1, 12, 27)"><g clip-path="url(#7fb78bf8d8)"><g fill="#000000" fill-opacity="1"><g transform="translate(1.089811, 7.530603)"><g><path d="M 2.078125 -1.125 C 2.140625 -1.113281 2.210938 -1.101562 2.296875 -1.09375 C 2.390625 -1.09375 2.492188 -1.09375 2.609375 -1.09375 C 3.296875 -1.09375 3.804688 -1.265625 4.140625 -1.609375 C 4.472656 -1.960938 4.640625 -2.445312 4.640625 -3.0625 C 4.640625 -3.695312 4.476562 -4.175781 4.15625 -4.5 C 3.84375 -4.832031 3.34375 -5 2.65625 -5 C 2.5625 -5 2.460938 -5 2.359375 -5 C 2.265625 -5 2.171875 -4.992188 2.078125 -4.984375 Z M 6.046875 -3.0625 C 6.046875 -2.53125 5.960938 -2.066406 5.796875 -1.671875 C 5.640625 -1.273438 5.410156 -0.945312 5.109375 -0.6875 C 4.804688 -0.4375 4.4375 -0.242188 4 -0.109375 C 3.5625 0.015625 3.070312 0.078125 2.53125 0.078125 C 2.289062 0.078125 2.003906 0.0664062 1.671875 0.046875 C 1.347656 0.0234375 1.023438 -0.015625 0.703125 -0.078125 L 0.703125 -6.03125 C 1.023438 -6.082031 1.359375 -6.117188 1.703125 -6.140625 C 2.046875 -6.160156 2.335938 -6.171875 2.578125 -6.171875 C 3.097656 -6.171875 3.570312 -6.113281 4 -6 C 4.425781 -5.882812 4.789062 -5.695312 5.09375 -5.4375 C 5.40625 -5.1875 5.640625 -4.863281 5.796875 -4.46875 C 5.960938 -4.082031 6.046875 -3.613281 6.046875 -3.0625 Z M 6.046875 -3.0625 "/></g></g></g><g fill="#000000" fill-opacity="1"><g transform="translate(7.587474, 7.530603)"><g><path d="M 2.015625 0.125 C 1.847656 0.125 1.675781 0.113281 1.5 0.09375 C 1.332031 0.0820312 1.164062 0.0546875 1 0.015625 C 0.832031 -0.015625 0.679688 -0.0507812 0.546875 -0.09375 C 0.410156 -0.132812 0.304688 -0.175781 0.234375 -0.21875 L 0.484375 -1.296875 C 0.640625 -1.234375 0.832031 -1.164062 1.0625 -1.09375 C 1.300781 -1.019531 1.597656 -0.984375 1.953125 -0.984375 C 2.359375 -0.984375 2.65625 -1.054688 2.84375 -1.203125 C 3.03125 -1.359375 3.125 -1.566406 3.125 -1.828125 C 3.125 -1.992188 3.085938 -2.128906 3.015625 -2.234375 C 2.953125 -2.335938 2.863281 -2.421875 2.75 -2.484375 C 2.632812 -2.554688 2.492188 -2.601562 2.328125 -2.625 C 2.171875 -2.65625 2 -2.671875 1.8125 -2.671875 L 1.296875 -2.671875 L 1.296875 -3.734375 L 1.890625 -3.734375 C 2.015625 -3.734375 2.132812 -3.742188 2.25 -3.765625 C 2.375 -3.796875 2.484375 -3.835938 2.578125 -3.890625 C 2.671875 -3.941406 2.742188 -4.015625 2.796875 -4.109375 C 2.859375 -4.210938 2.890625 -4.335938 2.890625 -4.484375 C 2.890625 -4.597656 2.863281 -4.695312 2.8125 -4.78125 C 2.769531 -4.863281 2.710938 -4.929688 2.640625 -4.984375 C 2.566406 -5.035156 2.476562 -5.070312 2.375 -5.09375 C 2.28125 -5.125 2.1875 -5.140625 2.09375 -5.140625 C 1.832031 -5.140625 1.59375 -5.097656 1.375 -5.015625 C 1.164062 -4.941406 0.972656 -4.847656 0.796875 -4.734375 L 0.328125 -5.703125 C 0.421875 -5.765625 0.53125 -5.828125 0.65625 -5.890625 C 0.789062 -5.953125 0.929688 -6.007812 1.078125 -6.0625 C 1.234375 -6.113281 1.394531 -6.15625 1.5625 -6.1875 C 1.738281 -6.226562 1.925781 -6.25 2.125 -6.25 C 2.476562 -6.25 2.785156 -6.207031 3.046875 -6.125 C 3.316406 -6.039062 3.535156 -5.921875 3.703125 -5.765625 C 3.867188 -5.609375 3.992188 -5.425781 4.078125 -5.21875 C 4.160156 -5.007812 4.203125 -4.78125 4.203125 -4.53125 C 4.203125 -4.289062 4.132812 -4.054688 4 -3.828125 C 3.863281 -3.597656 3.679688 -3.425781 3.453125 -3.3125 C 3.773438 -3.1875 4.019531 -2.992188 4.1875 -2.734375 C 4.363281 -2.484375 4.453125 -2.175781 4.453125 -1.8125 C 4.453125 -1.53125 4.40625 -1.269531 4.3125 -1.03125 C 4.21875 -0.789062 4.066406 -0.582031 3.859375 -0.40625 C 3.660156 -0.238281 3.40625 -0.109375 3.09375 -0.015625 C 2.789062 0.078125 2.429688 0.125 2.015625 0.125 Z M 2.015625 0.125 "/></g></g></g><g fill="#000000" fill-opacity="1"><g transform="translate(12.595181, 7.530603)"><g><path d="M 2.421875 -2.875 C 2.285156 -2.875 2.144531 -2.859375 2 -2.828125 C 1.851562 -2.804688 1.738281 -2.773438 1.65625 -2.734375 C 1.65625 -2.710938 1.648438 -2.675781 1.640625 -2.625 C 1.640625 -2.582031 1.640625 -2.546875 1.640625 -2.515625 C 1.640625 -2.296875 1.65625 -2.09375 1.6875 -1.90625 C 1.71875 -1.71875 1.769531 -1.550781 1.84375 -1.40625 C 1.914062 -1.269531 2.007812 -1.160156 2.125 -1.078125 C 2.238281 -1.003906 2.382812 -0.96875 2.5625 -0.96875 C 2.707031 -0.96875 2.832031 -1 2.9375 -1.0625 C 3.039062 -1.125 3.125 -1.203125 3.1875 -1.296875 C 3.257812 -1.390625 3.3125 -1.492188 3.34375 -1.609375 C 3.375 -1.722656 3.390625 -1.832031 3.390625 -1.9375 C 3.390625 -2.238281 3.3125 -2.46875 3.15625 -2.625 C 3.007812 -2.789062 2.765625 -2.875 2.421875 -2.875 Z M 2.578125 -3.890625 C 2.960938 -3.890625 3.285156 -3.835938 3.546875 -3.734375 C 3.816406 -3.640625 4.035156 -3.503906 4.203125 -3.328125 C 4.378906 -3.148438 4.503906 -2.941406 4.578125 -2.703125 C 4.660156 -2.472656 4.703125 -2.222656 4.703125 -1.953125 C 4.703125 -1.722656 4.65625 -1.484375 4.5625 -1.234375 C 4.476562 -0.984375 4.347656 -0.757812 4.171875 -0.5625 C 4.003906 -0.363281 3.785156 -0.195312 3.515625 -0.0625 C 3.253906 0.0625 2.941406 0.125 2.578125 0.125 C 1.835938 0.125 1.273438 -0.101562 0.890625 -0.5625 C 0.515625 -1.03125 0.328125 -1.675781 0.328125 -2.5 C 0.328125 -3.082031 0.414062 -3.597656 0.59375 -4.046875 C 0.78125 -4.503906 1.039062 -4.882812 1.375 -5.1875 C 1.71875 -5.5 2.128906 -5.734375 2.609375 -5.890625 C 3.085938 -6.054688 3.625 -6.144531 4.21875 -6.15625 C 4.226562 -5.96875 4.238281 -5.785156 4.25 -5.609375 C 4.269531 -5.441406 4.285156 -5.265625 4.296875 -5.078125 C 3.992188 -5.066406 3.710938 -5.035156 3.453125 -4.984375 C 3.191406 -4.941406 2.953125 -4.863281 2.734375 -4.75 C 2.523438 -4.644531 2.335938 -4.507812 2.171875 -4.34375 C 2.015625 -4.175781 1.894531 -3.972656 1.8125 -3.734375 C 1.9375 -3.796875 2.066406 -3.835938 2.203125 -3.859375 C 2.335938 -3.878906 2.460938 -3.890625 2.578125 -3.890625 Z M 2.578125 -3.890625 "/></g></g></g><g fill="#000000" fill-opacity="1"><g transform="translate(17.602888, 7.530603)"><g><path d="M 3.171875 -1.796875 C 3.171875 -1.960938 3.128906 -2.113281 3.046875 -2.25 C 2.972656 -2.382812 2.84375 -2.492188 2.65625 -2.578125 C 2.46875 -2.671875 2.210938 -2.738281 1.890625 -2.78125 C 1.578125 -2.832031 1.179688 -2.859375 0.703125 -2.859375 C 0.765625 -3.398438 0.816406 -3.953125 0.859375 -4.515625 C 0.898438 -5.078125 0.929688 -5.609375 0.953125 -6.109375 L 4.265625 -6.109375 L 4.265625 -5 L 2.0625 -5 C 2.050781 -4.789062 2.035156 -4.585938 2.015625 -4.390625 C 2.003906 -4.191406 1.988281 -4.019531 1.96875 -3.875 C 2.832031 -3.820312 3.46875 -3.625 3.875 -3.28125 C 4.28125 -2.9375 4.484375 -2.457031 4.484375 -1.84375 C 4.484375 -1.5625 4.429688 -1.300781 4.328125 -1.0625 C 4.234375 -0.820312 4.085938 -0.613281 3.890625 -0.4375 C 3.691406 -0.257812 3.4375 -0.117188 3.125 -0.015625 C 2.820312 0.078125 2.472656 0.125 2.078125 0.125 C 1.910156 0.125 1.738281 0.113281 1.5625 0.09375 C 1.394531 0.0820312 1.226562 0.0546875 1.0625 0.015625 C 0.90625 -0.015625 0.757812 -0.046875 0.625 -0.078125 C 0.5 -0.109375 0.398438 -0.144531 0.328125 -0.1875 L 0.578125 -1.265625 C 0.722656 -1.203125 0.914062 -1.140625 1.15625 -1.078125 C 1.394531 -1.015625 1.679688 -0.984375 2.015625 -0.984375 C 2.421875 -0.984375 2.710938 -1.0625 2.890625 -1.21875 C 3.078125 -1.382812 3.171875 -1.578125 3.171875 -1.796875 Z M 3.171875 -1.796875 "/></g></g></g></g></g></svg>